PathFileType	4	(X/Y/Z)	./resultDataOpenSim/trcMotMarkerGrf/sub09/qtm-03-02.trc
DataRate	CameraRate	NumFrames	NumMarkers	Units	OrigDataRate	OrigDataStartFrame	OrigNumFrames
250.000000	250.000000	13	24	m	250.000000	63	496
Frame#	Time	L.Toe.Tip			R.Toe.Tip			L.Ankle.Lat			R.Ankle.Lat			L.Ankle.Med			R.Ankle.Med			L.Heel			R.Heel			L.Knee.Lat			R.Knee.Lat			L.Knee.Med			R.Knee.Med			L.Thigh.Upper			R.Thigh.Upper			L.ASIS			R.ASIS			V.Sacral			L.Acromium			R.Acromium			C7			L.Elbow			R.Elbow			L.Wrist.Lat			R.Wrist.Lat
		X1	Y1	Z1	X2	Y2	Z2	X3	Y3	Z3	X4	Y4	Z4	X5	Y5	Z5	X6	Y6	Z6	X7	Y7	Z7	X8	Y8	Z8	X9	Y9	Z9	X10	Y10	Z10	X11	Y11	Z11	X12	Y12	Z12	X13	Y13	Z13	X14	Y14	Z14	X15	Y15	Z15	X16	Y16	Z16	X17	Y17	Z17	X18	Y18	Z18	X19	Y19	Z19	X20	Y20	Z20	X21	Y21	Z21	X22	Y22	Z22	X23	Y23	Z23	X24	Y24	Z24

63	0.248	-1.3925346	0.087761608	-0.054737257	-0.6725144	0.039592747	0.080043781	-1.411537	0.24242455	-0.10442356	-0.82043845	0.053274363	0.11188407	-1.3893976	0.22855342	-0.010676869	-0.81065108	0.091315412	0.017852136	-1.4743657	0.28891562	-0.059817744	-0.88623189	0.032510275	0.057873776	-1.0390442	0.42689168	-0.12144207	-0.78226413	0.50693803	0.16998102	-1.0377083	0.41321788	0.0057612096	-0.80189825	0.49417731	0.044343188	-1.006302	0.83288204	-0.13488664	-0.98082845	0.8605477	0.23684127	-0.91523043	0.91963938	-0.081866142	-0.90495569	0.94718434	0.15822046	-1.0798854	0.9882278	0.04138149	-0.90405254	1.3903458	-0.12239804	-0.94693555	1.3899507	0.20265763	-0.99132944	1.4413657	0.034376643	-0.99419985	1.0263121	-0.19792007	-1.0689571	1.0413982	0.26680031	-0.76229443	0.88666331	-0.17201276	-0.92745815	0.81038518	0.29983763
64	0.252	-1.3801167	0.090330319	-0.056398085	-0.67249282	0.039564412	0.079913478	-1.3995507	0.24534017	-0.10385242	-0.8198461	0.053200013	0.11147908	-1.3756199	0.23048063	-0.010537822	-0.81043499	0.091319653	0.017783187	-1.4623041	0.29141483	-0.058485961	-0.88625745	0.032515469	0.057799921	-1.0260898	0.42726056	-0.12082966	-0.77912306	0.50660541	0.17002247	-1.0247142	0.41353563	0.0067249418	-0.79879409	0.49410745	0.044360695	-1.0000713	0.83350062	-0.13451522	-0.97621251	0.86160484	0.23694636	-0.9095483	0.9206423	-0.081609786	-0.89921448	0.94819654	0.15839101	-1.0741545	0.98942016	0.041720773	-0.89800836	1.3912612	-0.12212988	-0.94056089	1.3909242	0.20291823	-0.9853383	1.4425039	0.034763063	-0.9887616	1.0273474	-0.19705831	-1.0617745	1.0420276	0.26829183	-0.75865027	0.88528888	-0.1719278	-0.9185233	0.81183086	0.29931454
65	0.256	-1.3671554	0.092743921	-0.058008249	-0.67248443	0.039559344	0.079822002	-1.387297	0.24798979	-0.10324824	-0.81937509	0.053006049	0.11095205	-1.3624511	0.23208688	-0.010088563	-0.81026347	0.091316693	0.017734027	-1.4502176	0.29360843	-0.057230046	-0.88630106	0.032536236	0.057759418	-1.0132946	0.42780244	-0.12008451	-0.7761992	0.50621565	0.1701492	-1.0110806	0.41394343	0.007746442	-0.79572381	0.49399921	0.044399013	-0.9938726	0.83422114	-0.13416839	-0.97083259	0.86293013	0.23718306	-0.90391804	0.92172862	-0.081375519	-0.89408422	0.94929295	0.15843765	-1.0684429	0.99068767	0.042022259	-0.89211735	1.3922721	-0.12190381	-0.93419229	1.391971	0.20317288	-0.97931424	1.4436709	0.035288234	-0.98347706	1.0284462	-0.19626955	-1.0549303	1.0427099	0.26925403	-0.75514115	0.88395786	-0.17187854	-0.90962467	0.81339609	0.29876796
66	0.26	-1.3537998	0.094972667	-0.059485963	-0.67249034	0.039558066	0.079769039	-1.3747997	0.25034355	-0.10262518	-0.81891762	0.052794	0.11039051	-1.3503543	0.23347566	-0.0092909896	-0.81012548	0.091307668	0.01770225	-1.4380894	0.29549884	-0.056111045	-0.88635255	0.032571782	0.057730504	-1.0006612	0.42855212	-0.11926324	-0.77343594	0.50581369	0.1703197	-0.99698082	0.41446651	0.0087764103	-0.7927783	0.49385288	0.044523426	-0.98769906	0.83504257	-0.13384072	-0.96482599	0.86447015	0.23753801	-0.89836321	0.92288535	-0.081164282	-0.88915259	0.95047907	0.15843579	-1.0627513	0.99201519	0.042302041	-0.88647813	1.3933708	-0.12174521	-0.927844	1.3930955	0.20342535	-0.97319776	1.4448567	0.03608552	-0.97821693	1.0296114	-0.19543717	-1.0482924	1.0434576	0.26996881	-0.75168045	0.88267301	-0.17182337	-0.90077415	0.81508244	0.29820019
67	0.264	-1.3401353	0.096995313	-0.060794233	-0.67251398	0.039551489	0.079748597	-1.3621221	0.25238373	-0.10197636	-0.81842137	0.052603178	0.10982266	-1.3388218	0.23478714	-0.008359983	-0.81001462	0.091297618	0.017685495	-1.4258627	0.29704868	-0.055124717	-0.88640286	0.032616757	0.057694464	-0.98813134	0.42951249	-0.118427	-0.77081674	0.50543038	0.17051967	-0.98292571	0.41514024	0.0097730313	-0.7900476	0.49367745	0.044818532	-0.98154171	0.83596635	-0.13352016	-0.95862384	0.86612901	0.23793873	-0.89288139	0.92411376	-0.080963469	-0.88396093	0.95175955	0.15846815	-1.0570838	0.99337315	0.042585068	-0.88101513	1.3945491	-0.12163006	-0.92153416	1.3942948	0.20368157	-0.96698552	1.44607	0.037146175	-0.97294316	1.030853	-0.19452792	-1.0417433	1.0442831	0.27065168	-0.74825091	0.88144	-0.17175276	-0.89197986	0.81688987	0.2976142
68	0.268	-1.3261523	0.098821277	-0.061951004	-0.67255696	0.039545029	0.079756951	-1.3493407	0.25411432	-0.10128328	-0.81797685	0.052457585	0.10930906	-1.3268818	0.23608013	-0.0075730734	-0.8099304	0.091292662	0.017682947	-1.4134978	0.29824156	-0.054229001	-0.88646427	0.032658969	0.057644124	-0.97559468	0.43065571	-0.11759485	-0.76835614	0.50508826	0.17077035	-0.96943651	0.41599252	0.010740521	-0.78754798	0.49348773	0.045302756	-0.97539306	0.83700548	-0.13319066	-0.9525348	0.86782935	0.23832531	-0.88744401	0.92542274	-0.080755167	-0.87843269	0.95311565	0.15856361	-1.0514401	0.9947551	0.042875405	-0.87561754	1.3958056	-0.12152159	-0.91528058	1.3955683	0.20395122	-0.96077266	1.4473482	0.038234772	-0.96768036	1.0321803	-0.19356543	-1.0352241	1.04519	0.27137003	-0.74488831	0.88026515	-0.17167615	-0.8832511	0.81882561	0.29701812
69	0.272	-1.3118382	0.10046072	-0.062963214	-0.67261875	0.039548324	0.07979534	-1.3364741	0.25555266	-0.10055979	-0.81780535	0.052383234	0.10896795	-1.3139168	0.23732048	-0.0070846032	-0.80987253	0.091299189	0.017695612	-1.400968	0.29907954	-0.053397892	-0.8865968	0.032672098	0.057585985	-0.96298589	0.43195301	-0.11674243	-0.76605648	0.5048031	0.17109162	-0.95656496	0.41703176	0.011721121	-0.78522133	0.4933027	0.04587166	-0.96924734	0.83817935	-0.13283399	-0.94665939	0.86952633	0.23867331	-0.88202346	0.92681989	-0.080527718	-0.87276542	0.95452206	0.15870822	-1.0458146	0.99617422	0.04317394	-0.87024206	1.3971424	-0.12140207	-0.90908911	1.3969205	0.20424111	-0.95470425	1.4487355	0.039023268	-0.96245704	1.0335985	-0.1925909	-1.0287116	1.0461744	0.27210924	-0.74162904	0.87915639	-0.17159938	-0.87460987	0.82089944	0.2964203
70	0.276	-1.2972418	0.10190123	-0.063785937	-0.67269966	0.039564824	0.079864612	-1.3234304	0.25671146	-0.09987897	-0.81805801	0.052387261	0.10887292	-1.3001695	0.23839933	-0.0067938937	-0.80983938	0.091321283	0.017726072	-1.388278	0.29956528	-0.052628786	-0.88689698	0.032617584	0.057536877	-0.9503859	0.43340231	-0.11583981	-0.76388217	0.50457141	0.17146197	-0.94397933	0.4182414	0.012751255	-0.78301432	0.49314198	0.046396136	-0.96309912	0.83950012	-0.13242994	-0.94102112	0.87119046	0.23898375	-0.87660997	0.92831238	-0.080279318	-0.86713167	0.95595979	0.15888086	-1.0402012	0.99765235	0.043476035	-0.86489587	1.3985587	-0.12127231	-0.90294941	1.3983531	0.20454699	-0.94888606	1.4502403	0.039299042	-0.95728577	1.0351058	-0.19162771	-1.0222004	1.0472324	0.27284043	-0.73848802	0.87812687	-0.17152441	-0.86610275	0.8230998	0.29581821
71	0.28	-1.2824579	0.10311727	-0.064351434	-0.6728	0.039591269	0.079957009	-1.3101012	0.25759178	-0.099312328	-0.81859826	0.052456111	0.10896295	-1.2861908	0.23921686	-0.006498542	-0.80982913	0.091357584	0.017777077	-1.3755156	0.29971322	-0.051900064	-0.88739356	0.032482095	0.057508292	-0.93792919	0.43501648	-0.11487783	-0.76178806	0.50437384	0.17183913	-0.93135104	0.41960164	0.013836774	-0.78088942	0.49301674	0.046821145	-0.95695683	0.84095926	-0.13197883	-0.93570315	0.87278999	0.23926204	-0.87120896	0.92990574	-0.080011946	-0.86158888	0.95740584	0.15907406	-1.0346013	0.99920335	0.043757103	-0.85959341	1.4000472	-0.12113703	-0.89684145	1.3998567	0.20485666	-0.9433213	1.451822	0.039082121	-0.95216425	1.0366953	-0.1906414	-1.0156927	1.0483661	0.2735504	-0.73546244	0.87719043	-0.17145437	-0.85778439	0.82538581	0.29519904
72	0.284	-1.2675286	0.10410404	-0.064650277	-0.67291692	0.0396222	0.080057862	-1.2965383	0.25819435	-0.098828662	-0.81911579	0.052575792	0.10910875	-1.2720835	0.23976212	-0.0061363808	-0.80984066	0.091403562	0.01785138	-1.3627952	0.2995472	-0.051170177	-0.88794531	0.032318832	0.057488978	-0.92564986	0.43679967	-0.11386846	-0.75976239	0.5041929	0.17220362	-0.91853765	0.42112721	0.014945635	-0.77877696	0.49292576	0.04713479	-0.95086196	0.84251807	-0.13153449	-0.93084967	0.87429175	0.2395093	-0.86582245	0.93159571	-0.079720935	-0.85613599	0.95883361	0.15929593	-1.0290241	1.0008131	0.044000745	-0.85433761	1.4015938	-0.12099872	-0.89074734	1.4014166	0.20515912	-0.93788245	1.4534187	0.038658371	-0.94707404	1.0383712	-0.18952451	-1.009176	1.0495799	0.27423598	-0.73254148	0.87635004	-0.17139306	-0.84966409	0.8277215	0.29454715
73	0.288	-1.2523568	0.10489538	-0.064774845	-0.67304675	0.039653636	0.080156898	-1.2829083	0.25852942	-0.098323157	-0.81944026	0.052731696	0.10923022	-1.2577082	0.24007004	-0.005744711	-0.80987796	0.091457411	0.017951467	-1.350145	0.29907143	-0.050418132	-0.8883455	0.032209488	0.05745583	-0.91350724	0.43874273	-0.11284419	-0.75783673	0.50401468	0.17256145	-0.90563741	0.4228936	0.015998373	-0.7766102	0.49286463	0.047328318	-0.94486628	0.84412865	-0.13118144	-0.926432	0.87569123	0.23973149	-0.86043299	0.93336606	-0.079395197	-0.85076335	0.96022729	0.15954943	-1.0234726	1.0024543	0.044224071	-0.84911134	1.4031853	-0.12085868	-0.88466576	1.4030252	0.2054507	-0.93238632	1.4549961	0.038406882	-0.94198006	1.0401525	-0.18812054	-1.0026084	1.0508704	0.27488798	-0.72971344	0.87559734	-0.17134395	-0.84169029	0.83010393	0.29385253
74	0.292	-1.2367978	0.10553079	-0.06483736	-0.67318805	0.039684176	0.080254658	-1.2692811	0.25860793	-0.09774824	-0.81961286	0.052904177	0.10931764	-1.2431797	0.24016088	-0.0053274337	-0.80995083	0.091522759	0.018076066	-1.3375001	0.29825965	-0.049662119	-0.88852836	0.032183334	0.057402433	-0.9014685	0.44082522	-0.11183835	-0.75605313	0.50382779	0.17292126	-0.89297737	0.4250239	0.016896961	-0.77439048	0.49283534	0.047398488	-0.93896739	0.8457759	-0.13096316	-0.92202399	0.877046	0.23994806	-0.85502242	0.93519952	-0.079033381	-0.84544156	0.96158818	0.1598204	-1.017938	1.0041086	0.044464621	-0.84387299	1.404814	-0.12071637	-0.87860856	1.404684	0.20573518	-0.92674324	1.4565687	0.038487971	-0.93686159	1.0420414	-0.18635718	-0.99595466	1.0522271	0.27549788	-0.7269698	0.87492322	-0.17130888	-0.8337869	0.83254957	0.29312504
75	0.296	-1.2208289	0.10601713	-0.064861173	-0.6733387	0.03971389	0.080359081	-1.2556066	0.25843142	-0.097130882	-0.81973246	0.053078539	0.10938831	-1.2287574	0.24004118	-0.0048660271	-0.81006296	0.091604474	0.018217143	-1.3247253	0.29707348	-0.049005628	-0.88857787	0.032212229	0.057342922	-0.88947533	0.44302732	-0.11083818	-0.75442031	0.50363394	0.17328092	-0.88087524	0.42756376	0.01765362	-0.77219533	0.49284014	0.047375116	-0.93308222	0.8474866	-0.13084498	-0.91710765	0.87843866	0.24018028	-0.8496026	0.93708689	-0.078653145	-0.84012136	0.96292626	0.16009391	-1.0124087	1.0057696	0.044752774	-0.83857704	1.4064729	-0.1205675	-0.87257404	1.406389	0.20601476	-0.92099335	1.4581666	0.038791468	-0.93176211	1.0439941	-0.1844411	-0.98924786	1.053641	0.27608156	-0.72430702	0.87432381	-0.17128871	-0.82586192	0.8350807	0.29239863
